<?xml version="1.0" standalone="no"?>
<!DOCTYPE svg PUBLIC "-//W3C//DTD SVG 20010904//EN"
 "http://www.w3.org/TR/2001/REC-SVG-20010904/DTD/svg10.dtd">
<svg version="1.0" xmlns="http://www.w3.org/2000/svg"
 width="200.000000pt" height="200.000000pt" viewBox="0 0 200.000000 200.000000"
 preserveAspectRatio="xMidYMid meet">

<g transform="translate(0.000000,200.000000) scale(0.100000,-0.100000)"
fill="#000000" stroke="none">
<path d="M920 1429 c-34 -49 -39 -54 -40 -41 0 6 -8 12 -19 12 -12 0 -28 -18
-47 -55 -16 -30 -32 -55 -36 -55 -5 0 -8 -4 -8 -10 0 -6 83 -10 230 -10 210 0
253 5 220 25 -5 3 -21 28 -36 55 -26 49 -57 65 -67 38 -2 -8 -10 -1 -17 15
-13 26 -17 27 -82 27 -39 0 -68 4 -68 10 0 17 -15 11 -30 -11z m130 -54 c33
-17 50 -60 30 -78 -10 -9 -14 -9 -17 1 -3 6 -16 12 -30 12 -22 0 -25 3 -21 30
3 19 0 30 -7 30 -7 0 -10 -11 -7 -30 4 -28 2 -30 -26 -30 -17 0 -32 -6 -35
-12 -3 -10 -7 -10 -17 -1 -19 18 -4 60 28 77 35 20 66 20 102 1z m-170 -55 c0
-23 -4 -30 -20 -30 -23 0 -35 22 -26 45 3 8 15 15 26 15 16 0 20 -7 20 -30z
m290 0 c0 -23 -4 -30 -20 -30 -11 0 -23 7 -26 15 -9 23 3 45 26 45 16 0 20 -7
20 -30z"/>
<path d="M950 1345 c-19 -22 -8 -25 13 -3 9 10 13 18 8 18 -5 0 -14 -7 -21
-15z"/>
<path d="M1041 1343 c7 -12 15 -20 18 -17 3 2 -3 12 -13 22 -17 16 -18 16 -5
-5z"/>
<path d="M590 735 c0 -70 4 -115 10 -115 6 0 10 24 10 53 0 60 22 103 40 77 5
-8 10 -41 10 -72 0 -32 5 -58 10 -58 6 0 10 32 10 75 0 82 -13 101 -51 76 -18
-10 -19 -8 -19 34 0 25 -4 45 -10 45 -6 0 -10 -45 -10 -115z"/>
<path d="M1160 735 c0 -70 4 -115 10 -115 6 0 10 45 10 115 0 70 -4 115 -10
115 -6 0 -10 -45 -10 -115z"/>
<path d="M460 815 c0 -8 9 -15 20 -15 19 0 20 -7 20 -90 0 -53 4 -90 10 -90 6
0 10 37 10 90 0 83 1 90 20 90 11 0 20 7 20 15 0 11 -12 15 -50 15 -38 0 -50
-4 -50 -15z"/>
<path d="M910 725 c0 -87 3 -105 15 -105 11 0 15 11 15 40 0 28 4 40 14 40 26
0 46 30 46 69 0 46 -14 61 -57 61 l-33 0 0 -105z m65 55 c7 -21 -9 -50 -26
-50 -5 0 -9 16 -9 35 0 39 24 49 35 15z"/>
<path d="M732 768 c-20 -20 -15 -112 7 -132 21 -19 52 -18 59 2 2 7 -6 12 -21
12 -25 0 -42 23 -31 41 3 5 18 9 35 9 23 0 29 4 29 21 0 50 -47 78 -78 47z
m48 -28 c0 -13 -7 -20 -20 -20 -22 0 -23 1 -14 24 9 23 34 20 34 -4z"/>
<path d="M1040 766 c0 -9 8 -12 25 -8 38 7 34 -30 -5 -45 -26 -10 -30 -16 -30
-47 0 -41 21 -56 47 -35 13 11 17 11 20 2 3 -7 9 -13 14 -13 10 0 13 119 3
144 -8 20 -74 22 -74 2z m50 -91 c0 -15 -6 -25 -14 -25 -19 0 -28 14 -20 34
10 25 34 19 34 -9z"/>
<path d="M1230 767 c0 -8 10 -13 22 -13 14 1 24 -6 26 -16 2 -13 -3 -18 -17
-18 -43 0 -64 -48 -37 -86 13 -17 17 -17 37 -5 17 10 24 10 27 2 2 -6 8 -11
13 -11 12 0 11 117 -1 141 -12 22 -70 27 -70 6z m48 -89 c-4 -29 -38 -38 -38
-10 0 22 8 32 27 32 9 0 13 -8 11 -22z"/>
<path d="M1350 761 c-18 -34 -12 -106 10 -126 10 -9 26 -15 35 -12 22 9 18 27
-6 27 -18 0 -20 5 -17 53 2 42 6 52 21 51 9 -1 17 4 17 12 0 21 -48 17 -60 -5z"/>
<path d="M1450 761 c-5 -11 -10 -40 -10 -64 0 -54 26 -83 65 -73 34 9 32 26
-4 26 -17 0 -31 6 -35 16 -9 23 2 34 35 34 23 0 29 4 29 21 0 34 -19 59 -45
59 -14 0 -29 -8 -35 -19z m53 -21 c4 -16 0 -20 -19 -20 -26 0 -27 1 -18 24 9
22 31 20 37 -4z"/>
</g>
</svg>
